<svg width="55" height="47" viewBox="0 0 55 47" fill="none" xmlns="http://www.w3.org/2000/svg">
<path d="M1.78703 44.3557C0.595677 43.2276 0 41.8722 0 40.2894C0 38.7066 0.595677 37.3521 1.78703 36.2259C2.97838 35.0997 4.40882 34.5357 6.07834 34.5338C7.74785 34.5318 9.1793 35.0959 10.3727 36.2259C11.5661 37.3559 12.1607 38.7104 12.1567 40.2894C12.1526 41.8684 11.558 43.2238 10.3727 44.3557C9.18741 45.4877 7.75596 46.0508 6.07834 46.045C4.40072 46.0393 2.97028 45.4762 1.78703 44.3557ZM1.78703 27.0889C0.595677 25.9608 0 24.6053 0 23.0225C0 21.4397 0.595677 20.0852 1.78703 18.959C2.97838 17.8329 4.40882 17.2688 6.07834 17.2669C7.74785 17.265 9.1793 17.829 10.3727 18.959C11.5661 20.0891 12.1607 21.4436 12.1567 23.0225C12.1526 24.6015 11.558 25.9569 10.3727 27.0889C9.18741 28.2208 7.75596 28.7839 6.07834 28.7781C4.40072 28.7724 2.97028 28.2093 1.78703 27.0889ZM1.78703 9.82198C0.595677 8.69388 0 7.33843 0 5.75563C0 4.17283 0.595677 2.81834 1.78703 1.69216C2.97838 0.565974 4.40882 0.00192342 6.07834 4.87765e-06C7.74785 -0.00191366 9.1793 0.562137 10.3727 1.69216C11.5661 2.82218 12.1607 4.17667 12.1567 5.75563C12.1526 7.33459 11.558 8.69004 10.3727 9.82198C9.18741 10.9539 7.75596 11.517 6.07834 11.5113C4.40072 11.5055 2.97028 10.9424 1.78703 9.82198ZM20.022 9.82198C18.8307 8.69388 18.235 7.33843 18.235 5.75563C18.235 4.17283 18.8307 2.81834 20.022 1.69216C21.2134 0.565974 22.6438 0.00192342 24.3134 4.87765e-06C25.9829 -0.00191366 27.4143 0.562137 28.6077 1.69216C29.8011 2.82218 30.3957 4.17667 30.3917 5.75563C30.3876 7.33459 29.793 8.69004 28.6077 9.82198C27.4224 10.9539 25.991 11.517 24.3134 11.5113C22.6357 11.5055 21.2053 10.9424 20.022 9.82198ZM38.2571 9.82198C37.0657 8.69388 36.47 7.33843 36.47 5.75563C36.47 4.17283 37.0657 2.81834 38.2571 1.69216C39.4484 0.565974 40.8788 0.00192342 42.5484 4.87765e-06C44.2179 -0.00191366 45.6493 0.562137 46.8427 1.69216C48.0361 2.82218 48.6308 4.17667 48.6267 5.75563C48.6227 7.33459 48.028 8.69004 46.8427 9.82198C45.6574 10.9539 44.226 11.517 42.5484 11.5113C40.8707 11.5055 39.4403 10.9424 38.2571 9.82198ZM20.022 27.0889C18.8307 25.9608 18.235 24.6053 18.235 23.0225C18.235 21.4397 18.8307 20.0852 20.022 18.959C21.2134 17.8329 22.6438 17.2688 24.3134 17.2669C25.9829 17.265 27.4143 17.829 28.6077 18.959C29.8011 20.0891 30.3957 21.4436 30.3917 23.0225C30.3876 24.6015 29.793 25.9569 28.6077 27.0889C27.4224 28.2208 25.991 28.7839 24.3134 28.7781C22.6357 28.7724 21.2053 28.2093 20.022 27.0889ZM27.3525 43.1672V38.4188C27.3525 38.0351 27.4285 37.6639 27.5805 37.3051C27.7324 36.9463 27.9604 36.6221 28.2643 36.3324L44.1439 21.3678C44.5998 20.9361 45.1063 20.6243 45.6635 20.4325C46.2207 20.2406 46.7779 20.1447 47.3351 20.1447C47.9429 20.1447 48.5254 20.2531 49.0826 20.4699C49.6398 20.6867 50.1463 21.01 50.6022 21.4397L53.4134 24.1017C53.8186 24.5334 54.1357 25.013 54.3647 25.5406C54.5936 26.0682 54.7071 26.5958 54.705 27.1234C54.703 27.651 54.6017 28.1911 54.4011 28.7436C54.2005 29.2961 53.8713 29.7873 53.4134 30.217L37.6097 45.1817C37.3058 45.4695 36.9644 45.6853 36.5855 45.8292C36.2066 45.9731 35.8136 46.045 35.4063 46.045H30.3917C29.5306 46.045 28.8093 45.7697 28.2278 45.2191C27.6463 44.6685 27.3545 43.9845 27.3525 43.1672ZM31.9113 41.7283H34.7985L43.992 32.951L42.6243 31.584L41.1807 30.289L31.9113 38.9944V41.7283ZM42.6243 31.584L41.1807 30.289L43.992 32.951L42.6243 31.584Z" fill="black"/>
</svg>
